<?xml version="1.0" encoding="UTF-8"?>
<svg xmlns="http://www.w3.org/2000/svg" viewBox="0 0 220 80"
     shape-rendering="crispEdges" image-rendering="pixelated"
     role="img" aria-label="我的灵玉">
  <defs>
    <radialGradient id="cheek" cx="50%" cy="50%" r="50%">
      <stop offset="0%"  stop-color="#ff8aa6" stop-opacity=".9"/>
      <stop offset="100%" stop-color="#ff8aa6" stop-opacity="0"/>
    </radialGradient>

  
  </defs>

  <linearGradient id="wbg" x1="0" y1="0" x2="0" y2="1">
    <stop offset="0%"  stop-color="#fff5fa"/>
    <stop offset="100%" stop-color="#ffe0ed"/>
  </linearGradient>
  <rect width="220" height="80" fill="url(#wbg)"/>
  <rect width="220" height="80" fill="none" stroke="#ff8aa6" stroke-width="3"/>
  <!-- corner gem -->
  <g transform="translate(14 26)">
    <rect x="10" y="0" width="4" height="2" fill="#7a1d6a"/>
  <rect x="8" y="2" width="8" height="2" fill="#a83b9a"/>
  <rect x="6" y="4" width="12" height="2" fill="#a83b9a"/>
  <rect x="4" y="6" width="16" height="2" fill="#a83b9a"/>
  <rect x="2" y="8" width="20" height="2" fill="#a83b9a"/>
  <rect x="0" y="10" width="24" height="2" fill="#a83b9a"/>
  <rect x="2" y="12" width="20" height="6" fill="#d672c4"/>
  <rect x="4" y="18" width="16" height="2" fill="#a83b9a"/>
  <rect x="6" y="20" width="12" height="2" fill="#a83b9a"/>
  <rect x="8" y="22" width="8" height="2" fill="#a83b9a"/>
  <rect x="10" y="24" width="4" height="2" fill="#7a1d6a"/>
  <rect x="8" y="4" width="2" height="4" fill="#fff8ff"/>
  <rect x="10" y="4" width="4" height="2" fill="#ffd0f0"/>
  <rect x="10" y="8" width="2" height="6" fill="#ffd0f0"/>
  </g>
  <text x="138" y="38" font-family="serif" font-size="20" font-weight="bold"
        text-anchor="middle" fill="#a02030">我的灵玉</text>
  <text x="138" y="60" font-family="serif" font-size="16"
        text-anchor="middle" fill="#ff8aa6">❤</text>

</svg>
